<svg width="32" height="32" fill="#ffa600" viewBox="0 -102 512 512" xmlns="http://www.w3.org/2000/svg">
    <path d="m507.52 111.75-248.43-111.08c-1.9688-0.88281-4.2148-0.88281-6.1836 0l-100.72 45.035c-3.8164 1.707-5.5273 6.1836-3.8203 10.004 1.707 3.8203 6.1875 5.5312 10.008 3.8242l97.621-43.652 89.371 39.961v55.789c-47.43-17.344-87.363-18.66-89.16-18.711-0.14063-0.003906-0.28125-0.003906-0.42188 0-1.9258 0.050782-47.73 1.5625-99.598 22.746-20.691 8.4453-39.594 18.961-56.18 31.25-1.2422 0.92188-2.1484 2.1875-2.6406 3.6094l-71.242-31.859 99.875-44.66c3.8203-1.707 5.5312-6.1836 3.8203-10.004-1.707-3.8203-6.1875-5.5312-10.004-3.8242l-115.34 51.574c-2.7266 1.2188-4.4805 3.9297-4.4805 6.9141 0 2.9883 1.7539 5.6953 4.4805 6.9141l92.465 41.352v36.27c0 4.1836 3.3945 7.5742 7.5742 7.5742 4.1836 0 7.5742-3.3906 7.5742-7.5742v-41.02-0.015625-5.3086c14.828-10.586 31.57-19.719 49.824-27.168 47.469-19.387 90.707-21.484 94.086-21.621 3.3086 0.12891 43.691 2.0586 89.367 19.746v75.266c-11.074 3.2734-19.184 13.539-19.184 25.664 0 11.141 6.8438 20.711 16.551 24.73l-5.2969 13.941c-34.562 5.9492-61.93 14.137-81.441 24.395-44.941-23.609-120.2-30.281-143.9-31.848v-21.246c0-4.1836-3.3945-7.5742-7.5742-7.5742-4.1836 0-7.5742 3.3906-7.5742 7.5742v28.402c0 4.0508 3.1914 7.3867 7.2422 7.5664 0.98828 0.042968 99.426 4.6406 148.06 32.34 1.1602 0.66016 2.4531 0.99219 3.75 0.99219 1.293 0 2.5859-0.33203 3.75-0.99609 16.352-9.3203 40.871-17.227 71.406-23.078l-4.4766 11.789c-0.88672 2.3281-0.57031 4.9414 0.84375 6.9922 1.4141 2.0469 3.7461 3.2734 6.2344 3.2734h38.375c2.4922 0 4.8203-1.2266 6.2344-3.2734 1.4141-2.0508 1.7305-4.6641 0.84766-6.9922l-6.8477-18.02c20.609-2.3594 35.273-3.0234 35.441-3.0312 4.0508-0.17578 7.2461-3.5117 7.2461-7.5664v-28.402c0-4.1797-3.3945-7.5742-7.5742-7.5742-4.1836 0-7.5742 3.3945-7.5742 7.5742v21.258c-7.0703 0.47656-18.82 1.418-33.09 3.1406l-3.6602-9.6367c9.7031-4.0195 16.551-13.59 16.551-24.73 0-12.129-8.1094-22.391-19.188-25.664v-68.848c14.227 6.5273 27.438 14.094 39.387 22.625v46.344c0 4.1836 3.3906 7.5742 7.5742 7.5742s7.5742-3.3906 7.5742-7.5742v-36.27l92.465-41.352c2.7266-1.2188 4.4805-3.9258 4.4805-6.9141 0-2.9844-1.7578-5.6953-4.4844-6.9141zm-162.78 179.1 8.207-21.598 8.207 21.598zm19.82-62.105c0 6.4023-5.207 11.609-11.613 11.609-6.4023 0-11.609-5.207-11.609-11.609 0-6.4062 5.207-11.613 11.609-11.613 6.4062 0 11.613 5.207 11.613 11.613zm50.07-78.219c-0.49219-1.4219-1.3984-2.6875-2.6406-3.6094-15.312-11.348-32.621-21.16-51.469-29.25v-55.051l125.35 56.051z"/>
</svg>