<svg width="32" height="32" fill="#ffa600" enable-background="new 0 0 436.907 436.907" version="1.1" viewBox="0 0 436.91 436.91" xml:space="preserve" xmlns="http://www.w3.org/2000/svg">
    <path d="m423.25 344.75h-416.43c-3.77 0-6.827 3.053-6.827 6.827 0 26.348 21.437 47.787 47.787 47.787h334.51c26.349 0 47.787-21.439 47.787-47.787-1e-3 -3.774-3.058-6.827-6.828-6.827zm-40.96 40.96h-334.51c-16.485 0-30.278-11.747-33.447-27.307h401.4c-3.171 15.56-16.965 27.307-33.448 27.307z"/>
    <path d="m389.12 179.52c-3.77 0-6.827 3.053-6.827 6.827v158.4h-334.51v-218.45h232.11c3.77 0 6.827-3.053 6.827-6.827s-3.057-6.827-6.827-6.827h-238.93c-3.77 0-6.827 3.053-6.827 6.827v232.11c0 3.773 3.057 6.827 6.827 6.827h348.16c3.77 0 6.827-3.053 6.827-6.827v-165.22c0-3.774-3.057-6.827-6.827-6.827z"/>
    <path d="m93.573 141.95c-2.666-2.666-6.987-2.666-9.653 0l-17.067 17.067c-2.666 2.666-2.666 6.987 0 9.653 1.333 1.333 3.081 2 4.826 2s3.494-0.667 4.826-2l17.068-17.067c2.666-2.666 2.666-6.987 0-9.653z"/>
    <path d="m120.88 141.95c-2.666-2.666-6.987-2.666-9.653 0l-37.547 37.547c-2.666 2.666-2.666 6.987 0 9.653 1.333 1.333 3.081 2 4.826 2s3.494-0.667 4.826-2l37.548-37.547c2.666-2.666 2.666-6.987 0-9.653z"/>
    <path d="m354.99 37.547c-45.17 0-81.92 36.746-81.92 81.92s36.75 81.92 81.92 81.92 81.92-36.746 81.92-81.92-36.75-81.92-81.92-81.92zm0 150.19c-37.644 0-68.267-30.626-68.267-68.267s30.623-68.267 68.267-68.267 68.267 30.626 68.267 68.267c-1e-3 37.641-30.623 68.267-68.267 68.267z"/>
    <path d="m384.83 78.995c-3.523-1.415-7.477 0.299-8.876 3.806l-23.887 59.72-26.95-21.56c-2.937-2.353-7.24-1.874-9.593 1.067-2.357 2.947-1.881 7.24 1.067 9.6l34.133 27.307c1.224 0.973 2.731 1.493 4.263 1.493 0.58 0 1.167-0.073 1.741-0.225 2.089-0.548 3.796-2.06 4.599-4.067l27.307-68.267c1.4-3.502-0.303-7.475-3.804-8.874z"/>
</svg>
