<svg width="32" height="32" fill="#ffa600" xmlns="http://www.w3.org/2000/svg" viewBox="0 0 512 512">
    <path d="M212.26 390.24l-60.33 60.33a63.97 63.97 0 01-90.5 0c-25-24.99-25-65.5-.01-90.49L182.1 239.4c24.99-25 65.5-25 90.49 0a21.33 21.33 0 0030.17-30.17c-41.65-41.66-109.18-41.66-150.83 0L31.25 329.9c-41.66 41.65-41.66 109.18 0 150.83 41.65 41.68 109.17 41.68 150.85 0l60.33-60.33a21.33 21.33 0 10-30.17-30.17z"/>
    <path d="M480.75 31.24c-41.65-41.65-109.2-41.65-150.85 0l-72.39 72.38a21.33 21.33 0 0030.17 30.17l72.39-72.38a64 64 0 0190.51 90.5L317.85 284.63c-25 24.99-65.5 24.99-90.5 0a21.33 21.33 0 00-30.17 30.17c41.66 41.65 109.18 41.65 150.84 0l132.73-132.74c41.65-41.65 41.65-109.18 0-150.83z"/>
</svg>