<svg fill="#ffa600" viewBox="0 0 128 128" xmlns="http://www.w3.org/2000/svg">
    <path d="M80.23 82.86l.7-1.12c10.38-17.2 15.6-32.25 15.53-44.72a32.46 32.46 0 00-64.92-.01c-.08 12.48 5.15 27.53 15.54 44.72l.7 1.13c-21.88 2.7-36.38 10.52-36.38 19.8 0 11.66 23.1 20.78 52.6 20.78s52.6-9.12 52.6-20.78c0-9.28-14.5-17.1-36.37-19.8zm-45.2-45.84a28.96 28.96 0 1157.93.01C93.11 61.9 69.87 92.55 64 99.9c-5.87-7.35-29.11-38.01-28.96-62.88zM64 119.94c-29.37 0-49.1-8.93-49.1-17.28 0-7.4 14.63-14.28 34.93-16.51a185.3 185.3 0 0012.84 17.65 1.75 1.75 0 002.66 0 185.3 185.3 0 0012.84-17.65c20.3 2.23 34.93 9.11 34.93 16.51 0 8.35-19.73 17.28-49.1 17.28z"/>
    <path d="M49.7 109.8c-7.77-.99-14-2.74-17.56-4.92a1.75 1.75 0 10-1.83 2.98c3.96 2.44 10.69 4.36 18.94 5.42a1.7 1.7 0 00.22.01 1.75 1.75 0 00.22-3.48zM66.94 110.64c-2.44.06-4.98.05-7.46-.04a1.75 1.75 0 10-.13 3.5c1.54.05 3.1.08 4.65.08q1.53 0 3.02-.04a1.75 1.75 0 001.71-1.79 1.73 1.73 0 00-1.8-1.7zM78.78 37.02A14.78 14.78 0 1064 51.8a14.8 14.8 0 0014.78-14.78zm-26.06 0A11.28 11.28 0 1164 48.3a11.29 11.29 0 01-11.28-11.28z"/>
</svg>