<svg fill="#ffa600" xmlns="http://www.w3.org/2000/svg" viewBox="0 0 505.71 505.71">
    <path d="M427.55 71.86c-99.2-95.81-256.48-95.81-355.69 0-98.22 101.7-95.4 263.76 6.3 361.99 99.2 95.81 256.48 95.81 355.69 0 98.22-101.7 95.4-263.77-6.3-361.99zm-5.74 349.95l-.08-.08c-93.35 93.27-244.64 93.2-337.9-.16s-93.2-244.63.15-337.9 244.64-93.2 337.9.16a238.93 238.93 0 0169.9 169.02 238.93 238.93 0 01-69.97 168.96z"/>
    <path d="M396.64 325.73l-47.96-47.79a27.9 27.9 0 00-39.46-.04l-.04.04-27.48 27.48a6.06 6.06 0 01-7.77.68 310.6 310.6 0 01-42.07-35.33 312.33 312.33 0 01-31.91-37.29 5.97 5.97 0 01.6-7.76l28.16-28.16a27.9 27.9 0 000-39.43l-47.96-47.95a28.59 28.59 0 00-39.51 0l-15.19 15.19a85.33 85.33 0 00-21.16 87.04 255.98 255.98 0 0031.23 63.31 323.71 323.71 0 0040.96 49.84 321.55 321.55 0 0054.87 44.29 244.29 244.29 0 0071 31.57 82.2 82.2 0 0019.8 2.39 86.36 86.36 0 0060.84-25.6l13.05-13.06a27.9 27.9 0 000-39.42zm-12.08 27.78l-.04.04.09-.26-13.06 13.06a68.27 68.27 0 01-64.42 18.43 226.83 226.83 0 01-65.88-29.52 304.37 304.37 0 01-51.97-41.9 306.71 306.71 0 01-38.83-47.1 238.9 238.9 0 01-29.18-59.06 68.26 68.26 0 0117.07-69.72l15.18-15.18a10.84 10.84 0 0115.33-.04l.03.04 47.96 47.95a10.84 10.84 0 01.04 15.33c-.02 0-.03.02-.04.03l-28.16 28.16c-8.08 8-9.1 20.7-2.39 29.87A329.33 329.33 0 00220 282.98a327.31 327.31 0 0044.37 37.29 23.12 23.12 0 0029.53-2.56l27.22-27.65a10.84 10.84 0 0115.32-.03c.02 0 .03.02.04.03l48.04 48.13a10.83 10.83 0 01.04 15.32z"/>
</svg>