<svg xmlns="http://www.w3.org/2000/svg" viewBox="0 0 512 512" fill="#fff">
    <path d="M392 77c-66.17 0-120 53.83-120 120 0 31.64 12.2 61.5 34.37 84.07a119.3 119.3 0 0083.2 35.9l.9.02a20 20 0 001.04-39.99l-1.1-.02C347.18 276.14 312 240.26 312 197c0-44.11 35.89-80 80-80s80 35.89 80 80c0 55.1-13.1 105.94-38.95 151.12-19.32 33.76-38.96 51.6-39.33 51.93A20 20 0 00420.23 430c.97-.86 23.95-21.35 46.57-60.34C487.42 334.12 512 275.32 512 197c0-66.17-53.83-120-120-120zM120 77C53.83 77 0 130.83 0 197c0 31.64 12.2 61.5 34.37 84.07a119.3 119.3 0 0083.2 35.9l.9.02a20 20 0 001.04-39.99l-1.1-.02C75.18 276.14 40 240.26 40 197c0-44.11 35.89-80 80-80s80 35.89 80 80c0 55.1-13.1 105.94-38.95 151.11-19.32 33.77-38.96 51.6-39.33 51.93A20 20 0 00148.23 430c.97-.86 23.95-21.35 46.57-60.34C215.42 334.12 240 275.32 240 197c0-66.17-53.83-120-120-120z"/>
</svg>