<svg aria-hidden="true" style="position: absolute; width: 0; height: 0; overflow: hidden;" version="1.1" xmlns="http://www.w3.org/2000/svg" xmlns:xlink="http://www.w3.org/1999/xlink">
    <defs>
        <symbol id="arrow-down" viewBox="0 0 32 32">
            <path d="M16 18.093c-0.127 0-0.255-0.049-0.352-0.146l-3.058-3.058c-0.194-0.194-0.194-0.51 0-0.704s0.51-0.194 0.704 0l2.705 2.706 2.705-2.705c0.195-0.194 0.51-0.194 0.704 0s0.195 0.51 0 0.704l-3.058 3.058c-0.097 0.097-0.225 0.146-0.352 0.146z"></path>
        </symbol>

        <symbol id="facebook" viewBox="0 0 32 32">
            <path d="M21.329 5.313h2.921v-5.088c-0.504-0.069-2.237-0.225-4.256-0.225-4.212 0-7.097 2.649-7.097 7.519v4.481h-4.648v5.688h4.648v14.312h5.699v-14.311h4.46l0.708-5.688h-5.169v-3.919c0.001-1.644 0.444-2.769 2.735-2.769z"></path>
        </symbol>

        <symbol id="github" viewBox="0 0 32 32">
            <path d="M15.998 0.333c-8.834 0-15.998 7.192-15.998 16.064 0 7.096 4.584 13.116 10.944 15.242 0.8 0.148 1.092-0.348 1.092-0.774 0-0.382-0.014-1.392-0.022-2.732-4.45 0.97-5.39-2.154-5.39-2.154-0.726-1.856-1.776-2.35-1.776-2.35-1.454-0.996 0.108-0.976 0.108-0.976 1.606 0.114 2.45 1.656 2.45 1.656 1.428 2.454 3.746 1.746 4.658 1.334 0.144-1.038 0.558-1.746 1.016-2.148-3.552-0.406-7.288-1.784-7.288-7.938 0-1.754 0.624-3.188 1.648-4.312-0.166-0.406-0.714-2.040 0.156-4.25 0 0 1.344-0.432 4.4 1.646 1.276-0.356 2.644-0.534 4.006-0.54 1.358 0.008 2.728 0.184 4.006 0.542 3.054-2.078 4.396-1.646 4.396-1.646 0.872 2.212 0.324 3.844 0.16 4.25 1.026 1.124 1.644 2.558 1.644 4.312 0 6.17-3.74 7.528-7.304 7.926 0.574 0.496 1.086 1.476 1.086 2.974 0 2.148-0.020 3.88-0.020 4.406 0 0.43 0.288 0.93 1.1 0.772 6.35-2.128 10.93-8.146 10.93-15.24 0-8.872-7.164-16.064-16.002-16.064z"></path>
        </symbol>

        <symbol id="instagram" viewBox="0 0 32 32">
            <path d="M22 0h-12c-5.522 0-10 4.478-10 10v12c0 5.522 4.478 10 10 10h12c5.522 0 10-4.478 10-10v-12c0-5.522-4.478-10-10-10zM29 22c0 3.86-3.14 7-7 7h-12c-3.86 0-7-3.14-7-7v-12c0-3.86 3.14-7 7-7h12c3.86 0 7 3.14 7 7v12z"></path>
            <path d="M16 8c-4.418 0-8 3.582-8 8s3.582 8 8 8 8-3.582 8-8-3.582-8-8-8zM16 21c-2.756 0-5-2.244-5-5 0-2.758 2.244-5 5-5s5 2.242 5 5c0 2.756-2.244 5-5 5z"></path>
            <path d="M25.666 7.4c0 0.589-0.477 1.066-1.066 1.066s-1.066-0.477-1.066-1.066c0-0.589 0.477-1.066 1.066-1.066s1.066 0.477 1.066 1.066z"></path>
        </symbol>

        <symbol id="linkedin" viewBox="0 0 32 32">
            <path d="M31.992 32v-0.001h0.008v-11.736c0-5.741-1.236-10.164-7.948-10.164-3.227 0-5.392 1.771-6.276 3.449h-0.093v-2.913h-6.364v21.364h6.627v-10.579c0-2.785 0.528-5.479 3.977-5.479 3.399 0 3.449 3.179 3.449 5.657v10.401z"></path>
            <path d="M0.528 10.636h6.635v21.364h-6.635z"></path>
            <path d="M3.843 0c-2.121 0-3.843 1.721-3.843 3.843s1.721 3.879 3.843 3.879 3.843-1.757 3.843-3.879c-0.001-2.121-1.723-3.843-3.843-3.843z"></path>
        </symbol>

        <symbol id="twitter" viewBox="0 0 32 32">
            <path d="M10.43 28.020c11.327 0 17.521-9.384 17.521-17.521 0-0.267-0.006-0.532-0.017-0.796 1.202-0.869 2.247-1.954 3.072-3.189-1.103 0.491-2.291 0.821-3.536 0.97 1.271-0.763 2.247-1.969 2.708-3.406-1.19 0.705-2.508 1.218-3.91 1.495-1.124-1.197-2.724-1.945-4.495-1.945-3.401 0-6.158 2.758-6.158 6.157 0 0.483 0.054 0.953 0.16 1.404-5.118-0.258-9.656-2.708-12.693-6.434-0.529 0.91-0.834 1.967-0.834 3.095 0 2.136 1.087 4.023 2.74 5.126-1.010-0.031-1.959-0.308-2.789-0.77-0.001 0.026-0.001 0.051-0.001 0.079 0 2.982 2.123 5.472 4.941 6.037-0.518 0.141-1.062 0.217-1.624 0.217-0.396 0-0.782-0.039-1.157-0.111 0.784 2.447 3.057 4.227 5.753 4.277-2.108 1.652-4.763 2.636-7.649 2.636-0.496 0-0.987-0.028-1.469-0.085 2.725 1.747 5.962 2.766 9.44 2.766z"></path>
        </symbol>
    </defs>
</svg>
