<svg width="32" height="32" fill="#ffa600" enable-background="new 0 0 512 512" version="1.1" viewBox="0 0 512 512" xml:space="preserve" xmlns="http://www.w3.org/2000/svg">
    <path d="m213.33 213.33c0-2.263-0.899-4.433-2.5-6.033-1.6-1.601-3.77-2.5-6.033-2.5s-4.433 0.899-6.033 2.5l-42.667 42.667c-1.601 1.6-2.5 3.77-2.5 6.033s0.899 4.434 2.5 6.033l42.667 42.667c3.332 3.332 8.735 3.332 12.067 0s3.332-8.734 0-12.067l-36.634-36.633 36.634-36.634c1.6-1.599 2.499-3.77 2.499-6.033z"/>
	<path d="m313.23 207.3c-3.341-3.281-8.701-3.256-12.012 0.054-3.311 3.311-3.335 8.671-0.054 12.012l36.633 36.634-36.634 36.634c-2.178 2.151-3.037 5.304-2.251 8.262s3.097 5.269 6.055 6.055 6.111-0.073 8.262-2.251l42.667-42.667c1.601-1.6 2.5-3.77 2.5-6.033s-0.899-4.433-2.5-6.033l-42.666-42.667z"/>
	<path d="m275.41 188.06c-4.531-1.275-9.242 1.345-10.55 5.867l-34.133 119.47c-1.292 4.531 1.33 9.252 5.858 10.55 0.765 0.214 1.556 0.323 2.35 0.325 3.809-3e-3 7.154-2.529 8.2-6.192l34.133-119.47c1.293-4.53-1.329-9.251-5.858-10.55z"/>
	<path d="m256 93.865c-89.544 0-162.13 72.59-162.13 162.13s72.589 162.13 162.13 162.13 162.13-72.59 162.13-162.13c-0.101-89.502-72.631-162.03-162.13-162.13zm0 307.2c-80.118 0-145.07-64.949-145.07-145.07s64.949-145.07 145.07-145.07 145.07 64.949 145.07 145.07c-0.09 80.081-64.986 144.98-145.07 145.07z"/>
	<path d="m510.58 228.96c-0.342-3.135-2.385-5.827-5.313-7l-51.938-20.792c-4.465-16-10.868-31.395-19.067-45.842l22.062-51.525c1.242-2.897 0.783-6.243-1.192-8.7-11.376-14.042-24.189-26.856-38.229-38.233-2.459-1.977-5.809-2.436-8.708-1.192l-51.529 22.059c-14.444-8.202-29.838-14.605-45.837-19.067l-20.8-51.942c-1.172-2.926-3.862-4.967-6.996-5.309-17.976-1.883-36.099-1.883-54.075 0-3.133 0.341-5.823 2.383-6.996 5.308l-20.8 51.942c-16 4.462-31.393 10.865-45.837 19.067l-51.528-22.058c-2.9-1.246-6.25-0.787-8.708 1.192-14.038 11.381-26.85 24.195-38.229 38.233-1.975 2.457-2.433 5.803-1.192 8.7l22.063 51.525c-8.199 14.447-14.602 29.842-19.067 45.842l-51.938 20.791c-2.927 1.174-4.97 3.865-5.312 7-1.889 17.978-1.889 36.105 0 54.083 0.343 3.135 2.385 5.827 5.312 7l51.938 20.792c4.465 16 10.868 31.395 19.067 45.842l-22.063 51.525c-1.242 2.897-0.783 6.243 1.192 8.7 11.376 14.042 24.189 26.856 38.229 38.233 2.46 1.975 5.808 2.433 8.708 1.192l51.529-22.059c14.444 8.202 29.838 14.605 45.837 19.067l20.8 51.942c1.172 2.926 3.862 4.967 6.996 5.308 17.976 1.889 36.1 1.889 54.075 0 3.133-0.341 5.823-2.382 6.996-5.308l20.8-51.942c16-4.462 31.393-10.865 45.837-19.067l51.529 22.059c2.9 1.24 6.248 0.782 8.708-1.192 14.038-11.381 26.85-24.195 38.229-38.233 1.975-2.457 2.433-5.803 1.192-8.7l-22.062-51.525c8.199-14.447 14.602-29.842 19.066-45.842l51.938-20.792c2.927-1.173 4.97-3.864 5.313-7 1.889-17.977 1.889-36.104 0-54.082zm-16.475 47.166-51.088 20.45c-2.53 1.014-4.423 3.176-5.096 5.817-4.439 17.344-11.352 33.959-20.525 49.333-1.394 2.346-1.585 5.216-0.512 7.725l21.709 50.692c-4.187 4.958-8.763 9.925-13.65 14.808-4.846 4.85-9.813 9.425-14.804 13.642l-50.692-21.7c-2.507-1.082-5.381-0.893-7.725 0.508-15.374 9.174-31.989 16.087-49.333 20.525-2.639 0.673-4.798 2.564-5.813 5.092l-20.458 51.092c-13.391 1.1-26.85 1.1-40.242 0l-20.459-51.092c-1.014-2.527-3.174-4.419-5.812-5.092-17.344-4.438-33.959-11.351-49.333-20.525-2.344-1.401-5.218-1.59-7.725-0.508l-50.692 21.7c-4.992-4.217-9.958-8.792-14.808-13.642-4.883-4.883-9.458-9.85-13.646-14.808l21.709-50.692c1.072-2.509 0.882-5.379-0.513-7.725-9.173-15.375-16.086-31.989-20.525-49.333-0.673-2.641-2.566-4.802-5.096-5.817l-51.088-20.45c-0.546-6.483-0.825-13.225-0.825-20.125s0.279-13.642 0.825-20.125l51.088-20.45c2.53-1.014 4.423-3.176 5.096-5.817 4.439-17.344 11.352-33.959 20.525-49.333 1.394-2.345 1.584-5.216 0.513-7.725l-21.709-50.692c4.187-4.958 8.763-9.925 13.65-14.808 4.846-4.85 9.813-9.425 14.804-13.642l50.692 21.7c2.507 1.081 5.381 0.892 7.725-0.508 15.374-9.174 31.989-16.087 49.333-20.525 2.639-0.673 4.798-2.565 5.812-5.092l20.458-51.092c13.391-1.1 26.85-1.1 40.242 0l20.459 51.091c1.014 2.527 3.174 4.419 5.813 5.092 17.344 4.438 33.959 11.351 49.333 20.525 2.344 1.401 5.218 1.59 7.725 0.508l50.692-21.7c4.992 4.217 9.958 8.792 14.808 13.642 4.883 4.883 9.458 9.85 13.646 14.808l-21.708 50.692c-1.072 2.509-0.882 5.379 0.512 7.725 9.173 15.375 16.086 31.989 20.525 49.333 0.673 2.641 2.566 4.802 5.096 5.817l51.088 20.45c0.546 6.483 0.825 13.225 0.825 20.125-1e-3 6.901-0.28 13.643-0.826 20.126z"/>
</svg>