<svg viewBox="-21 -81 681.33 681" xmlns="http://www.w3.org/2000/svg">
    <path d="m200.96 515.29c241.05 0 372.87-199.7 372.87-372.87 0-5.6719-0.11719-11.32-0.37109-16.938 25.586-18.5 47.824-41.586 65.371-67.863-23.48 10.441-48.754 17.461-75.258 20.637 27.055-16.23 47.828-41.895 57.625-72.488-25.32 15.012-53.363 25.918-83.215 31.809-23.914-25.473-57.965-41.402-95.664-41.402-72.367 0-131.06 58.688-131.06 131.03 0 10.289 1.1523 20.289 3.3984 29.883-108.92-5.4805-205.5-57.625-270.13-136.92-11.25 19.363-17.742 41.863-17.742 65.871 0 45.461 23.137 85.605 58.316 109.08-21.5-0.66016-41.695-6.5625-59.352-16.387-0.019531 0.55078-0.019531 1.0859-0.019531 1.6719 0 63.469 45.172 116.46 105.14 128.47-11.016 2.9961-22.605 4.6094-34.559 4.6094-8.4297 0-16.648-0.82812-24.633-2.3633 16.684 52.07 65.066 89.961 122.43 91.023-44.855 35.156-101.36 56.098-162.77 56.098-10.562 0-21.004-0.60547-31.262-1.8164 58 37.176 126.87 58.871 200.89 58.871"/>
</svg>
